<svg xmlns="http://www.w3.org/2000/svg" width="17.646" height="13.429" viewBox="0 0 17.646 13.429">
  <g id="Group_428" data-name="Group 428" transform="translate(-578.603 -563)">
    <path id="Path_624" data-name="Path 624" d="M594.095,563H580.761a2.16,2.16,0,0,0-2.158,2.158v9.113a2.16,2.16,0,0,0,2.158,2.158h13.33a2.16,2.16,0,0,0,2.158-2.158v-9.11A2.158,2.158,0,0,0,594.095,563Zm1.172,11.271a1.173,1.173,0,0,1-1.172,1.172H580.761a1.173,1.173,0,0,1-1.172-1.172v-9.11a1.173,1.173,0,0,1,1.172-1.172h13.33a1.173,1.173,0,0,1,1.172,1.172v9.11Zm0,0" fill="#808994"/>
    <path id="Path_625" data-name="Path 625" d="M599.978,578.973l4.372-3.936a.5.5,0,0,0-.669-.746l-6.03,5.432-1.176-1.055s-.007-.007-.007-.011a.753.753,0,0,0-.081-.071l-4.787-4.3a.5.5,0,0,0-.666.75l4.424,3.969-4.406,4.14a.5.5,0,0,0-.022.709.51.51,0,0,0,.366.16.5.5,0,0,0,.34-.134l4.472-4.2,1.213,1.088a.5.5,0,0,0,.666,0l1.247-1.121,4.446,4.24a.5.5,0,0,0,.706-.019.5.5,0,0,0-.018-.709Zm0,0" transform="translate(-10.216 -9.374)" fill="#808994"/>
  </g>
</svg>
