<svg xmlns="http://www.w3.org/2000/svg" width="23.807" height="23.807" viewBox="0 0 23.807 23.807">
  <g id="Group_1304" data-name="Group 1304" transform="translate(0 -0.001)">
    <g id="Group_155" data-name="Group 155" transform="translate(0 0.001)">
      <path id="Path_626" data-name="Path 626" d="M5.276,146.226l-.829,3.094-3.029.064a11.924,11.924,0,0,1-.088-11.115h0l2.7.494,1.181,2.68a7.1,7.1,0,0,0,.067,4.783Z" transform="translate(0 -131.839)" fill="#fbbb00"/>
      <path id="Path_627" data-name="Path 627" d="M273.06,208.176a11.9,11.9,0,0,1-4.243,11.506h0l-3.4-.173-.481-3a7.094,7.094,0,0,0,3.052-3.623h-6.365v-4.709H273.06Z" transform="translate(-249.461 -198.496)" fill="#518ef8"/>
      <path id="Path_628" data-name="Path 628" d="M48.445,316.207h0a11.907,11.907,0,0,1-17.937-3.642l3.857-3.158a7.079,7.079,0,0,0,10.2,3.625Z" transform="translate(-29.09 -295.021)" fill="#28b446"/>
      <path id="Path_629" data-name="Path 629" d="M46.794,2.74,42.938,5.9A7.078,7.078,0,0,0,32.5,9.6L28.625,6.429h0A11.906,11.906,0,0,1,46.794,2.74Z" transform="translate(-27.293)" fill="#f14336"/>
    </g>
  </g>
</svg>
