<svg xmlns="http://www.w3.org/2000/svg" width="24" height="28" viewBox="0 0 24 28">
  <g id="Group_1339" data-name="Group 1339" transform="translate(-21 -50.242)">
    <g id="Rectangle_776" data-name="Rectangle 776" transform="translate(21 50.242)" fill="#f7f7f7" stroke="#f7f7f7" stroke-width="1" opacity="0.8">
      <rect width="24" height="28" rx="5" stroke="none"/>
      <rect x="0.5" y="0.5" width="23" height="27" rx="4.5" fill="none"/>
    </g>
    <g id="_001-like" data-name="001-like" transform="translate(26.475 58.759)">
      <g id="Group_1314" data-name="Group 1314" transform="translate(0 0)">
        <path id="Path_3908" data-name="Path 3908" d="M12.036,30.963a3.27,3.27,0,0,0-5.221.376,4.978,4.978,0,0,0-.323.524,4.974,4.974,0,0,0-.323-.524,3.27,3.27,0,0,0-5.221-.376A3.935,3.935,0,0,0,0,33.577a4.819,4.819,0,0,0,1.327,3.162,29.551,29.551,0,0,0,3.322,3.1c.5.428,1.022.871,1.575,1.355l.017.015a.38.38,0,0,0,.5,0l.017-.015c.553-.484,1.073-.927,1.575-1.355a29.546,29.546,0,0,0,3.322-3.1,4.819,4.819,0,0,0,1.327-3.162A3.935,3.935,0,0,0,12.036,30.963Zm-4.2,8.3c-.433.369-.879.749-1.349,1.157-.47-.409-.916-.788-1.349-1.158C2.5,37.015.761,35.529.761,33.577a3.176,3.176,0,0,1,.757-2.111A2.539,2.539,0,0,1,3.449,30.6a2.564,2.564,0,0,1,2.1,1.182,4.51,4.51,0,0,1,.582,1.158.38.38,0,0,0,.723,0,4.51,4.51,0,0,1,.582-1.158,2.51,2.51,0,0,1,4.03-.312,3.176,3.176,0,0,1,.757,2.111C12.222,35.529,10.479,37.015,7.84,39.263Z" transform="translate(0 -29.836)" fill="#393b44"/>
      </g>
    </g>
  </g>
</svg>
