<svg xmlns="http://www.w3.org/2000/svg" width="20.363" height="19.464" viewBox="0 0 20.363 19.464">
  <g id="Group_1306" data-name="Group 1306" transform="translate(0 0)">
    <path id="Path_12" data-name="Path 12" d="M440.653,155.98h-4.365V142.847h4.365Zm-2.182-14.926h-.029a2.494,2.494,0,1,1,.029,0Zm17.923,14.926h-4.365v-7.026c0-1.766-.632-2.97-2.212-2.97a2.39,2.39,0,0,0-2.24,1.6,2.989,2.989,0,0,0-.144,1.065v7.334h-4.365s.057-11.9,0-13.133h4.365v1.859a4.334,4.334,0,0,1,3.934-2.168c2.872,0,5.025,1.877,5.025,5.911Zm0,0" transform="translate(-436.029 -136.516)" fill="#0076c0"/>
  </g>
</svg>
