<svg xmlns="http://www.w3.org/2000/svg" width="118.789" height="16.82" viewBox="0 0 118.789 16.82">
  <path id="Subtraction_75" data-name="Subtraction 75" d="M22877.637,18212.818a8.107,8.107,0,0,1-3.99-1.014,7.586,7.586,0,0,1-2.883-2.826,8.323,8.323,0,0,1,0-8.152,7.619,7.619,0,0,1,2.883-2.812,8.354,8.354,0,0,1,7.984,0,7.461,7.461,0,0,1,2.859,2.813,8.438,8.438,0,0,1-.01,8.152,7.556,7.556,0,0,1-2.861,2.826A8.024,8.024,0,0,1,22877.637,18212.818Zm-.006-12.252a.441.441,0,0,0-.41.271l-.957,2.242-2.422.215a.465.465,0,0,0-.387.311.44.44,0,0,0,.133.473l1.828,1.6-.535,2.381a.446.446,0,0,0,.172.461.424.424,0,0,0,.26.086.47.47,0,0,0,.23-.062l2.088-1.252,2.092,1.252a.445.445,0,0,0,.225.061.452.452,0,0,0,.266-.084.447.447,0,0,0,.174-.461l-.543-2.381,1.834-1.6a.445.445,0,0,0,.127-.473.438.438,0,0,0-.381-.311l-2.422-.215-.957-2.242A.45.45,0,0,0,22877.631,18200.566Zm43.811,12.207a8.1,8.1,0,0,1-4.018-1,7.182,7.182,0,0,1-2.762-2.785,8.288,8.288,0,0,1-.986-4.07,8.376,8.376,0,0,1,.986-4.082,7.133,7.133,0,0,1,2.762-2.791,8.057,8.057,0,0,1,4.018-1,7.7,7.7,0,0,1,4.705,1.453,7.005,7.005,0,0,1,2.623,3.961h-4.141a3.343,3.343,0,0,0-1.309-1.477,3.664,3.664,0,0,0-1.926-.508,3.588,3.588,0,0,0-2.812,1.211,5.391,5.391,0,0,0,0,6.469,3.588,3.588,0,0,0,2.813,1.211,3.664,3.664,0,0,0,1.926-.508,3.291,3.291,0,0,0,1.309-1.475h4.141a6.941,6.941,0,0,1-2.623,3.949A7.727,7.727,0,0,1,22921.441,18212.773Zm12.563-.109h0l-3.937,0,5.586-15.439h4.354l5.592,15.438-3.982,0-.924-2.727h-5.764l-.924,2.727Zm3.807-11.279-1.893,5.645h3.807Zm-39.908,11.279h0l-3.039,0-3.477-9.281v9.281h-3.76v-15.439h4.445l4.33,10.689,4.295-10.689h4.422v15.438l-3.764,0v-9.258l-3.453,9.258Zm-39.137,0h0l-3.764,0v-15.439h3.766V18204l5.143-6.775h4.422l-5.979,7.564,6.2,7.873-4.6,0-5.189-6.82v6.822Zm106.014,0h-3.758v-15.439h6.094a6.948,6.948,0,0,1,3.119.635,4.373,4.373,0,0,1,1.914,1.758,5.172,5.172,0,0,1,.641,2.578,4.927,4.927,0,0,1-.617,2.449,4.465,4.465,0,0,1-1.891,1.793,6.587,6.587,0,0,1-3.166.682h-2.336v5.545Zm0-12.408v3.877h2.047a2.282,2.282,0,0,0,1.609-.508,2.208,2.208,0,0,0,0-2.859,2.242,2.242,0,0,0-1.609-.508h-2.047Zm-13.727,12.408h-3.76v-15.439h6.09a6.948,6.948,0,0,1,3.123.635,4.355,4.355,0,0,1,1.916,1.758,5.155,5.155,0,0,1,.639,2.578,4.97,4.97,0,0,1-.617,2.449,4.443,4.443,0,0,1-1.891,1.793,6.707,6.707,0,0,1-3.17.682h-2.33v5.545Zm0-12.408v3.877h2.047a2.241,2.241,0,0,0,1.6-.508,2.2,2.2,0,0,0,0-2.859,2.222,2.222,0,0,0-1.6-.508h-2.047Zm-39.471,12.408h-3.758v-15.439h3.758v15.439Z" transform="translate(-22854.5 -18196.498)" fill="#ff3442" stroke="rgba(0,0,0,0)" stroke-width="1"/>
</svg>
