<svg xmlns="http://www.w3.org/2000/svg" width="12.127" height="16.014" viewBox="0 0 12.127 16.014">
  <g id="Group_1305" data-name="Group 1305" transform="translate(-758.539 -554.889)">
    <path id="Path_622" data-name="Path 622" d="M769.6,561.621v-1.729a5,5,0,0,0-10.006,0,.716.716,0,1,0,1.432,0,3.57,3.57,0,0,1,7.141,0v1.728h-8.513a1.12,1.12,0,0,0-1.119,1.119v5.377a2.789,2.789,0,0,0,2.786,2.786h6.555a2.789,2.789,0,0,0,2.786-2.786v-5.377A1.121,1.121,0,0,0,769.6,561.621Zm-.37,6.5a1.355,1.355,0,0,1-1.354,1.354h-6.552a1.355,1.355,0,0,1-1.354-1.354v-5.064h9.259Z" transform="translate(0 0)" fill="#808994"/>
    <path id="Path_623" data-name="Path 623" d="M782.407,608.987a1.9,1.9,0,1,0-1.9-1.9A1.9,1.9,0,0,0,782.407,608.987Zm0-2.371a.469.469,0,1,1-.467.471A.468.468,0,0,1,782.407,606.616Z" transform="translate(-17.803 -40.762)" fill="#808994"/>
  </g>
</svg>
