<svg xmlns="http://www.w3.org/2000/svg" width="32" height="32" viewBox="0 0 32 32">
  <g id="search" transform="translate(5.602 5.98)">
    <circle id="profile_celbrity" cx="16" cy="16" r="16" transform="translate(-5.602 -5.98)" fill="none" opacity="0"/>
    <path id="Path_2" data-name="Path 2" d="M29.551,26.644,24.393,21.5A9.578,9.578,0,0,1,21.4,24.485l5.158,5.144a2.113,2.113,0,1,0,2.993-2.985Z" transform="translate(-8.892 -9.043)" fill="#393b44"/>
    <path id="Path_3" data-name="Path 3" d="M16.812,8.382a8.406,8.406,0,1,0-8.406,8.382A8.386,8.386,0,0,0,16.812,8.382ZM8.406,14.669a6.287,6.287,0,1,1,6.3-6.287A6.269,6.269,0,0,1,8.406,14.669Z" transform="translate(-1.12 -1.196)" fill="#393b44"/>
  </g>
</svg>
