<svg xmlns="http://www.w3.org/2000/svg" width="24" height="28" viewBox="0 0 24 28">
  <g id="Group_1292" data-name="Group 1292" transform="translate(-21 -51)">
    <g id="Rectangle_776" data-name="Rectangle 776" transform="translate(21 51)" fill="#f7f7f7" stroke="#f7f7f7" stroke-width="1" opacity="0.8">
      <rect width="24" height="28" rx="5" stroke="none"/>
      <rect x="0.5" y="0.5" width="23" height="27" rx="4.5" fill="none"/>
    </g>
    <g id="share" transform="translate(-1295.959 -416.283)">
      <g id="Group_30" data-name="Group 30" transform="translate(1323.48 475.627)">
        <path id="Union_2" data-name="Union 2" d="M2.948,8.442V1.721L1.006,3.854a.6.6,0,0,1-.448.184.641.641,0,0,1-.335-.092A.435.435,0,0,1,0,3.577.407.407,0,0,1,.112,3.3L2.943.193A.572.572,0,0,1,3,.136.561.561,0,0,1,3.16.044.657.657,0,0,1,3.4,0h0a.657.657,0,0,1,.237.044.547.547,0,0,1,.157.092.431.431,0,0,1,.059.057L6.682,3.3a.406.406,0,0,1,.113.276.439.439,0,0,1-.224.369.639.639,0,0,1-.783-.092L3.869,1.746v6.7a.46.46,0,0,1-.921,0Z" transform="translate(2.597)" fill="#393b44" stroke="rgba(0,0,0,0)" stroke-width="1"/>
        <path id="Path_45" data-name="Path 45" d="M5.824,15.134C1.1,15.134.187,13.873.05,13.616a.413.413,0,0,1-.05-.2V8.644a.493.493,0,0,1,.52-.461.493.493,0,0,1,.52.461v4.629c.227.206,1.309.973,5.018.939,3.68-.033,4.781-.807,5.03-1.041V8.761a.524.524,0,0,1,1.039,0v4.56a.417.417,0,0,1-.049.2c-.139.262-1.082,1.571-6.009,1.616Z" transform="translate(0 -3.159)" fill="#393b44"/>
      </g>
      <rect id="Rectangle_2974" data-name="Rectangle 2974" width="13" height="13" transform="translate(1322.959 475.283)" fill="none"/>
    </g>
  </g>
</svg>
