<svg id="user" xmlns="http://www.w3.org/2000/svg" width="32" height="32" viewBox="0 0 32 32">
  <g id="user-2" data-name="user" transform="translate(8.427 2.949)">
    <circle id="profile_celbrity" cx="16" cy="16" r="16" transform="translate(-8.427 -2.949)" fill="none" opacity="0"/>
    <path id="Subtraction_16" data-name="Subtraction 16" d="M7.251,14.5A7.249,7.249,0,1,1,14.5,7.248,7.258,7.258,0,0,1,7.251,14.5Zm0-12.081a4.832,4.832,0,1,0,4.834,4.832A4.838,4.838,0,0,0,7.251,2.416Z" transform="translate(0.008 0.235)" fill="#393b44"/>
    <path id="Subtraction_17" data-name="Subtraction 17" d="M18.237,8.221H.012a.014.014,0,0,1,0-.006A8.136,8.136,0,0,1,.145,6.3,7.552,7.552,0,0,1,1.933,2.58C3.5.868,5.915,0,9.11,0S14.724.868,16.3,2.58A7.48,7.48,0,0,1,18.1,6.3a7.928,7.928,0,0,1,.14,1.915ZM9.116,2.088a7.927,7.927,0,0,0-3.363.678,5.971,5.971,0,0,0-2,1.492,5.677,5.677,0,0,0-1.2,2.171H15.674a5.61,5.61,0,0,0-1.2-2.171,5.968,5.968,0,0,0-1.995-1.492A7.924,7.924,0,0,0,9.116,2.088Z" transform="translate(-1.545 16.003)" fill="#393b44"/>
  </g>
</svg>
